<?xml version="1.0" encoding="UTF-8" standalone="no"?>
<!-- Created with Inkscape (http://www.inkscape.org/) -->

<svg
   xmlns:dc="http://purl.org/dc/elements/1.1/"
   xmlns:cc="http://creativecommons.org/ns#"
   xmlns:rdf="http://www.w3.org/1999/02/22-rdf-syntax-ns#"
   xmlns:svg="http://www.w3.org/2000/svg"
   xmlns="http://www.w3.org/2000/svg"
   xmlns:sodipodi="http://sodipodi.sourceforge.net/DTD/sodipodi-0.dtd"
   xmlns:inkscape="http://www.inkscape.org/namespaces/inkscape"
   width="500"
   height="500"
   viewBox="0 0 500.00001 500.00001"
   id="svg4179"
   version="1.1"
   inkscape:version="0.91 r13725"
   sodipodi:docname="fish3.svg">
  <defs
     id="defs4181" />
  <sodipodi:namedview
     id="base"
     pagecolor="#ffffff"
     bordercolor="#666666"
     borderopacity="1.0"
     inkscape:pageopacity="0.0"
     inkscape:pageshadow="2"
     inkscape:zoom="0.92566671"
     inkscape:cx="129.60611"
     inkscape:cy="276.1684"
     inkscape:document-units="px"
     inkscape:current-layer="layer1"
     showgrid="false"
     units="px"
     inkscape:window-width="1366"
     inkscape:window-height="705"
     inkscape:window-x="-8"
     inkscape:window-y="-8"
     inkscape:window-maximized="1" />
  <metadata
     id="metadata4184">
    <rdf:RDF>
      <cc:Work
         rdf:about="">
        <dc:format>image/svg+xml</dc:format>
        <dc:type
           rdf:resource="http://purl.org/dc/dcmitype/StillImage" />
        <dc:title></dc:title>
      </cc:Work>
    </rdf:RDF>
  </metadata>
  <g
     inkscape:label="Layer 1"
     inkscape:groupmode="layer"
     id="layer1"
     transform="translate(0,-552.36216)">
    <path
       inkscape:connector-curvature="0"
       id="path4777"
       d="m 428.96076,687.47656 4.54516,1.84418 0.14215,-5.1613 5.80524,3.1924 0.46139,-7.29528 5.81117,4.2252 0.22596,-7.66793 7.00773,5.2036 -0.27647,-8.93009 8.0002,6.99007 -2.17282,-11.32139 z"
       style="fill:#7fff00;fill-rule:evenodd;stroke:#000000;stroke-width:2.21239328px;stroke-linecap:butt;stroke-linejoin:miter;stroke-opacity:1" />
    <path
       style="fill:#7fff00;fill-rule:evenodd;stroke:#000000;stroke-width:2.21239328px;stroke-linecap:butt;stroke-linejoin:miter;stroke-opacity:1"
       d="m 427.65717,692.84126 3.08204,-3.24517 2.94665,4.5939 3.47939,-4.89785 4.39929,6.40243 2.92068,-5.82912 4.39101,6.81984 3.46289,-7.12688 4.62826,8.13071 3.38015,-9.08047 4.22813,10.94384 z"
       id="path4775"
       inkscape:connector-curvature="0" />
    <path
       style="fill:#ffa500;fill-rule:evenodd;stroke:#000000;stroke-width:2.21239328px;stroke-linecap:butt;stroke-linejoin:miter;stroke-opacity:1"
       d="m 335.08871,728.79785 c 0,0 -14.32452,1.46511 -17.47073,-5.45656 -14.91286,-32.80839 12.56121,-66.82984 33.0122,-83.69256 17.75779,-14.64207 47.82982,-28.36346 68.43781,-7.39431 4.9781,5.06537 3.21113,21.87531 3.21113,21.87531 z"
       id="path4769"
       inkscape:connector-curvature="0"
       sodipodi:nodetypes="cssscc" />
    <path
       style="fill:#ff8c00;fill-rule:evenodd;stroke:#000000;stroke-width:2.21239328px;stroke-linecap:butt;stroke-linejoin:round;stroke-opacity:1"
       d="m 326.18305,835.02658 c 0,0 -1.26722,-137.42498 33.54469,-172.82098 23.07705,-23.46422 89.3447,-11.51575 97.03546,-6.70942 0.19531,0.12206 10.44842,10.55415 -9.25609,21.01555 -3.09176,1.64147 -24.67894,10.91596 -25.92724,15.22765 -0.75726,2.61559 44.44061,6.18164 43.76126,8.92508 -9.41513,38.02117 -39.56005,59.19735 -52.2833,62.96627 -37.71753,11.17284 -154.56288,-35.69759 -154.56288,-35.69759 10.64403,5.58281 52.092,36.67623 67.6881,107.09344 z"
       id="path4767"
       inkscape:connector-curvature="0"
       sodipodi:nodetypes="csssssscc" />
    <ellipse
       style="opacity:1;fill:#ffa500;fill-opacity:0.72670803;fill-rule:nonzero;stroke:#000000;stroke-width:3.98230767;stroke-linecap:round;stroke-linejoin:round;stroke-miterlimit:4;stroke-dasharray:none;stroke-dashoffset:0;stroke-opacity:1"
       id="path4771"
       cx="131.01547"
       cy="773.78278"
       rx="6.615809"
       ry="9.2001038"
       transform="matrix(0.92586421,-0.37785641,0.37785641,0.92586421,0,0)" />
    <ellipse
       style="opacity:1;fill:#ffa500;fill-opacity:0.72670803;fill-rule:nonzero;stroke:#000000;stroke-width:3.98230767;stroke-linecap:round;stroke-linejoin:round;stroke-miterlimit:4;stroke-dasharray:none;stroke-dashoffset:0;stroke-opacity:1"
       id="path4773"
       cx="130.87796"
       cy="773.63519"
       rx="1.403425"
       ry="2.1684852"
       transform="matrix(0.92586421,-0.37785641,0.37785641,0.92586421,0,0)" />
    <path
       style="fill:none;fill-rule:evenodd;stroke:#000000;stroke-width:2.21239328px;stroke-linecap:round;stroke-linejoin:miter;stroke-opacity:1"
       d="m 278.7016,743.8563 c 0,0 17.05465,7.26163 25.56965,9.00428 8.22295,1.68287 24.28998,1.32917 24.28998,1.32917"
       id="path4779"
       inkscape:connector-curvature="0"
       sodipodi:nodetypes="cac" />
    <path
       style="fill:none;fill-rule:evenodd;stroke:#000000;stroke-width:2.21239328px;stroke-linecap:butt;stroke-linejoin:miter;stroke-opacity:1"
       d="m 303.16647,775.32742 27.08827,-22.76566"
       id="path4781"
       inkscape:connector-curvature="0"
       sodipodi:nodetypes="cc" />
    <path
       style="fill:none;fill-rule:evenodd;stroke:#000000;stroke-width:2.21239328px;stroke-linecap:butt;stroke-linejoin:miter;stroke-opacity:1"
       d="m 316.698,803.53156 c -0.43612,-18.52445 4.22522,-36.02809 13.38891,-49.73027"
       id="path4783"
       inkscape:connector-curvature="0"
       sodipodi:nodetypes="cc" />
    <path
       style="fill:#fff8dc;fill-opacity:0.22981364;fill-rule:evenodd;stroke:none;stroke-width:1px;stroke-linecap:butt;stroke-linejoin:miter;stroke-opacity:1"
       d="m 345.43841,710.53068 c 2.85432,7.18504 6.06751,8.5283 11.29615,6.63205 9.22231,-3.3446 11.73316,-20.68716 17.85236,-29.30167 5.21628,-7.34339 18.60774,-5.12847 20.35323,-15.33277 0.73876,-4.31884 -1.73722,-10.8639 -5.13862,-13.82926 -4.82043,-4.20249 -11.05882,-2.39825 -15.65877,-0.40162 -5.91197,2.56605 -9.67858,9.2725 -13.5325,15.12546 -3.86268,5.86627 -6.67034,12.85938 -9.44331,19.78036 -2.21731,5.5341 -8.37993,10.65324 -5.72854,17.32745 z"
       id="path4785"
       inkscape:connector-curvature="0"
       sodipodi:nodetypes="sssssssss" />
    <path
       style="fill:#ffff00;fill-rule:evenodd;stroke:#000000;stroke-width:1.25185585px;stroke-linecap:butt;stroke-linejoin:miter;stroke-opacity:1"
       d="m 255.33112,845.72134 2.48287,-0.17475 -0.81127,-3.00179 3.31377,0.25733 -1.02242,-4.31361 3.4925,0.84868 -1.1982,-4.46368 4.23009,1.08565 -1.65294,-5.05193 5.00795,1.84197 -2.96508,-5.9102 z"
       id="path4787"
       inkscape:connector-curvature="0" />
    <path
       inkscape:connector-curvature="0"
       id="path4789"
       d="m 255.62286,849.15513 0.91787,-2.69956 2.18848,1.83775 0.826,-3.75626 3.18963,2.48184 0.40079,-4.13929 3.25679,2.72375 0.43846,-5.0315 3.59328,3.41193 0.0662,-6.13066 3.88149,5.13562 z"
       style="fill:#ffff00;fill-rule:evenodd;stroke:#000000;stroke-width:1.25185585px;stroke-linecap:butt;stroke-linejoin:miter;stroke-opacity:1" />
    <path
       sodipodi:nodetypes="cssscc"
       inkscape:connector-curvature="0"
       id="path4791"
       d="m 217.57732,894.92114 c 0,0 -6.58549,4.72873 -9.26567,1.60871 -12.70386,-14.7888 -5.38908,-41.7776 1.49717,-57.00913 5.97936,-13.22571 17.9914,-29.26484 31.39622,-22.81885 3.23807,1.55711 5.25811,11.68763 5.25811,11.68763 z"
       style="fill:#ffff00;fill-rule:evenodd;stroke:#000000;stroke-width:1.25185585px;stroke-linecap:butt;stroke-linejoin:miter;stroke-opacity:1" />
    <path
       sodipodi:nodetypes="csssssscc"
       inkscape:connector-curvature="0"
       id="path4793"
       d="m 231.42127,958.32645 c 0,0 -24.01149,-78.55494 -13.42951,-108.32432 7.01488,-19.73434 40.67015,-30.85908 45.15848,-30.18687 0.11393,0.0169 6.78319,3.22375 -0.83715,14.57756 -1.19568,1.78148 -9.91652,12.9648 -9.77777,15.77904 0.0842,1.70717 22.2581,-8.51188 22.40122,-6.75243 1.98343,24.38404 -8.79365,44.72289 -14.22271,50.33975 -16.09422,16.65089 -79.83112,21.45258 -79.83112,21.45258 6.02977,0.31649 31.10299,6.91922 50.53856,43.11469 z"
       style="fill:#ffff00;fill-rule:evenodd;stroke:#000000;stroke-width:1.25185585px;stroke-linecap:butt;stroke-linejoin:round;stroke-opacity:1" />
    <ellipse
       cy="734.87463"
       cx="-335.00174"
       id="circle4795"
       style="opacity:1;fill:#ffff00;fill-opacity:0.72670803;fill-rule:nonzero;stroke:#000000;stroke-width:2.28230333;stroke-linecap:round;stroke-linejoin:round;stroke-miterlimit:4;stroke-dasharray:none;stroke-dashoffset:0;stroke-opacity:1"
       transform="matrix(0.62758812,-0.77854553,0.61885517,0.78550511,0,0)"
       rx="3.9786842"
       ry="5.0247369" />
    <ellipse
       ry="1.1843419"
       rx="0.84400636"
       cy="734.79401"
       cx="-335.08444"
       id="ellipse4797"
       style="opacity:1;fill:#ffff00;fill-opacity:0.72670803;fill-rule:nonzero;stroke:#000000;stroke-width:2.28230333;stroke-linecap:round;stroke-linejoin:round;stroke-miterlimit:4;stroke-dasharray:none;stroke-dashoffset:0;stroke-opacity:1"
       transform="matrix(0.62758812,-0.77854553,0.61885517,0.78550511,0,0)" />
    <path
       sodipodi:nodetypes="cac"
       inkscape:connector-curvature="0"
       id="path4799"
       d="m 193.23658,918.86964 c 0,0 9.37461,-0.45944 13.73442,-1.76988 4.21029,-1.26546 11.81655,-5.82904 11.81655,-5.82904"
       style="fill:#ffff00;fill-rule:evenodd;stroke:#000000;stroke-width:1.25185585px;stroke-linecap:round;stroke-linejoin:miter;stroke-opacity:1" />
    <path
       sodipodi:nodetypes="cc"
       inkscape:connector-curvature="0"
       id="path4801"
       d="m 210.27049,930.29833 9.04786,-20.42188"
       style="fill:#ffff00;fill-rule:evenodd;stroke:#000000;stroke-width:1.25185585px;stroke-linecap:butt;stroke-linejoin:miter;stroke-opacity:1" />
    <path
       sodipodi:nodetypes="cc"
       inkscape:connector-curvature="0"
       id="path4803"
       d="m 221.53103,942.81859 c -3.36326,-10.51694 -4.12037,-21.83124 -2.08164,-32.18495"
       style="fill:#ffff00;fill-rule:evenodd;stroke:#000000;stroke-width:1.25185585px;stroke-linecap:butt;stroke-linejoin:miter;stroke-opacity:1" />
    <path
       sodipodi:nodetypes="sssssssss"
       inkscape:connector-curvature="0"
       id="path4805"
       d="m 219.40444,881.6247 c 2.58573,3.35046 4.34773,3.24958 6.51963,0.74189 3.83084,-4.42309 2.07505,-15.06126 3.52762,-21.66778 1.23823,-5.63168 8.00533,-7.99441 7.10017,-14.32664 -0.38309,-2.68003 -2.67931,-5.76572 -4.80741,-6.54511 -3.01589,-1.10449 -5.68526,1.62441 -7.5401,4.01911 -2.38389,3.07772 -3.03887,7.95029 -3.8809,12.35653 -0.84395,4.41627 -0.99256,9.19315 -1.13689,13.91922 -0.11541,3.77899 -2.18404,8.39052 0.21788,11.50278 z"
       style="fill:#ffff00;fill-opacity:0.22981364;fill-rule:evenodd;stroke:none;stroke-width:1px;stroke-linecap:butt;stroke-linejoin:miter;stroke-opacity:1" />
    <path
       inkscape:connector-curvature="0"
       id="path4807"
       d="m 103.46001,969.25186 1.83445,1.16901 0.36938,-2.07364 2.29298,1.83155 0.63352,-2.90675 2.23377,2.24965 0.55512,-3.0793 2.68723,2.75671 0.41555,-3.63647 3.0051,3.57148 -0.25284,-4.77995 z"
       style="fill:#7cfc00;fill-rule:evenodd;stroke:#000000;stroke-width:0.93488991px;stroke-linecap:butt;stroke-linejoin:miter;stroke-opacity:1" />
    <path
       style="fill:#7cfc00;fill-rule:evenodd;stroke:#000000;stroke-width:0.93488991px;stroke-linecap:butt;stroke-linejoin:miter;stroke-opacity:1"
       d="m 102.58154,971.29954 1.51268,-1.02504 0.98617,2.1319 1.78149,-1.65626 1.49951,2.99847 1.59812,-2.08484 1.471,3.16647 1.90769,-2.55901 1.49411,3.71861 1.98909,-3.35667 1.15481,4.81877 z"
       id="path4809"
       inkscape:connector-curvature="0" />
    <path
       style="fill:#7cfc00;fill-rule:evenodd;stroke:#000000;stroke-width:0.93488991px;stroke-linecap:butt;stroke-linejoin:miter;stroke-opacity:1"
       d="m 60.825642,977.21546 c 0,0 -6.216446,-0.74187 -7.148801,-3.83356 -4.419229,-14.65449 9.369691,-25.85129 19.127963,-30.76445 8.473186,-4.26617 22.160099,-7.01305 29.723836,3.38496 1.82708,2.51176 0.0661,9.14396 0.0661,9.14396 z"
       id="path4811"
       inkscape:connector-curvature="0"
       sodipodi:nodetypes="cssscc" />
    <path
       style="fill:#7cfc00;fill-rule:evenodd;stroke:#000000;stroke-width:0.93488991px;stroke-linecap:butt;stroke-linejoin:round;stroke-opacity:1"
       d="m 50.66464,1019.3374 c 0,0 7.673434,-55.68306 24.6841,-66.75215 11.276523,-7.33772 38.91546,3.66596 41.91867,6.32564 0.0762,0.0675 3.83951,5.24061 -5.21666,7.63509 -1.421,0.37563 -11.21171,2.11488 -12.00358,3.74195 -0.480357,0.98703 18.6448,6.63892 18.19012,7.68489 -6.30135,14.49611 -20.465097,20.25039 -26.134197,20.58917 -16.80576,1.00427 -63.997135,-28.83054 -63.997135,-28.83054 4.220387,3.2487 20.095462,19.68144 22.558682,49.60595 z"
       id="path4813"
       inkscape:connector-curvature="0"
       sodipodi:nodetypes="csssssscc" />
    <ellipse
       ry="3.8927994"
       rx="2.8049898"
       transform="matrix(0.98760882,-0.1569357,0.25127017,0.96791699,0,0)"
       style="opacity:1;fill:#7cfc00;fill-opacity:0.72670803;fill-rule:nonzero;stroke:#000000;stroke-width:1.68672252;stroke-linecap:round;stroke-linejoin:round;stroke-miterlimit:4;stroke-dasharray:none;stroke-dashoffset:0;stroke-opacity:1"
       id="ellipse4815"
       cx="-146.77592"
       cy="967.52069" />
    <ellipse
       transform="matrix(0.98760882,-0.1569357,0.25127017,0.96791699,0,0)"
       style="opacity:1;fill:#7cfc00;fill-opacity:0.72670803;fill-rule:nonzero;stroke:#000000;stroke-width:1.68672252;stroke-linecap:round;stroke-linejoin:round;stroke-miterlimit:4;stroke-dasharray:none;stroke-dashoffset:0;stroke-opacity:1"
       id="ellipse4817"
       cx="-146.83424"
       cy="967.45813"
       rx="0.59502816"
       ry="0.91754156" />
    <path
       style="fill:#7cfc00;fill-rule:evenodd;stroke:#000000;stroke-width:0.93488991px;stroke-linecap:round;stroke-linejoin:miter;stroke-opacity:1"
       d="m 35.799628,978.05181 c 0,0 6.862898,4.52468 10.401932,6.02243 3.417665,1.44638 10.313267,2.79993 10.313267,2.79993"
       id="path4819"
       inkscape:connector-curvature="0"
       sodipodi:nodetypes="cac" />
    <path
       style="fill:#7cfc00;fill-rule:evenodd;stroke:#000000;stroke-width:0.93488991px;stroke-linecap:butt;stroke-linejoin:miter;stroke-opacity:1"
       d="m 44.385756,993.05535 12.950967,-6.68167"
       id="path4821"
       inkscape:connector-curvature="0"
       sodipodi:nodetypes="cc" />
    <path
       style="fill:#7cfc00;fill-rule:evenodd;stroke:#000000;stroke-width:0.93488991px;stroke-linecap:butt;stroke-linejoin:miter;stroke-opacity:1"
       d="m 48.489237,1005.7195 c 0.920838,-7.53057 3.961652,-14.17366 8.701584,-18.8603"
       id="path4823"
       inkscape:connector-curvature="0"
       sodipodi:nodetypes="cc" />
    <path
       style="fill:#7cfc00;fill-opacity:0.22981364;fill-rule:evenodd;stroke:none;stroke-width:1px;stroke-linecap:butt;stroke-linejoin:miter;stroke-opacity:1"
       d="m 66.345932,970.79356 c 0.79169,3.17099 2.086212,4.01337 4.436672,3.73368 4.145815,-0.49327 6.256866,-7.27151 9.390055,-10.18461 2.670849,-2.4833 8.268084,-0.34038 9.624964,-4.30369 0.57428,-1.67743 -0.0938,-4.5544 -1.37188,-6.07025 -1.811236,-2.14816 -4.588231,-1.99973 -6.675736,-1.62095 -2.682898,0.48689 -4.695406,2.84767 -6.694253,4.85518 -2.003386,2.01214 -3.622737,4.57814 -5.22293,7.1182 -1.279542,2.03105 -4.222311,3.52687 -3.486892,6.47244 z"
       id="path4825"
       inkscape:connector-curvature="0"
       sodipodi:nodetypes="sssssssss" />
  </g>
</svg>
