<?xml version="1.0" encoding="utf-8"?>
<svg version="1.1" id="Layer_1" xmlns="http://www.w3.org/2000/svg" xmlns:xlink="http://www.w3.org/1999/xlink" x="0px" y="0px"
	 viewBox="0 0 2560 1600" enable-background="new 0 0 2560 1600" xml:space="preserve">
<g>
	<g>
		<g>
			<g>
				<g>
					<path fill="#FEF3BB" d="M831.0045,845.1263c-113.7632-14.5729-268.4282-46.8901-403.6369-84.3391
						c-118.2775-32.7601-279.0587-85.0603-373.3343-148.1773l-1.6085-1.0775l0.0937-1.9335
						c0.2974-6.1293,0.7268-12.4957,1.277-18.9229c5.6138-65.5742,24.701-147.9086,56.732-244.7167
						c27.2466-82.348,64.8473-178.0795,111.7581-284.5347l1.1384-2.5831l2.7521,0.6247
						c124.5206,28.2473,269.8316,62.0348,403.4603,98.4588c139.8188,38.1117,252.4554,75.1195,344.3456,113.139l2.518,1.0419
						l-0.45,2.6874c-41.4771,247.6677-86.4155,428.2137-141.4237,568.189l-0.976,2.4829L831.0045,845.1263z"/>
					<path fill="#CB0300" d="M225.4186,62.8053c279.2557,63.3489,547.1711,128.6389,747.2542,211.4225
						c-35.7499,213.4712-79.3643,410.0692-141.2336,567.5024C624.2967,815.1954,221.9947,720.939,55.9383,609.7646
						c0.2981-6.15,0.7224-12.4172,1.2685-18.7964C69.2019,450.848,139.9974,256.6537,225.4186,62.8053 M221.4286,54.8785
						l-2.2763,5.1655c-46.9547,106.5551-84.5949,202.3889-111.8755,284.8397C75.1618,441.9456,56.0204,524.5439,50.384,590.384
						c-0.5538,6.4699-0.9864,12.879-1.2854,19.0491l-0.1874,3.8676l3.2175,2.1542
						c94.6548,63.371,255.8047,115.8044,374.3249,148.6316c135.3544,37.4898,290.2023,69.8438,404.1155,84.436l5.2919,0.6779
						l1.9514-4.9654c55.098-140.2028,100.0969-320.967,141.614-568.876l0.9003-5.375l-5.0358-2.0835
						c-92.0248-38.0749-204.7951-75.1285-344.7546-113.2783c-133.6896-36.441-279.046-70.2392-403.6027-98.4948L221.4286,54.8785
						L221.4286,54.8785z"/>
				</g>
				<path fill="none" stroke="#CB0300" stroke-width="7.1401" stroke-miterlimit="10" d="M225.4186,62.8053
					c26.2262,101.591,63.9752,209.2242,110.3349,321.3727c28.8776,69.8575,61.096,141.4668,95.9518,214.4592
					c93.2735-25.231,165.5935-77.0366,239.7587-118.8193c108.3642-61.0495,208.6398-129.8351,301.2089-205.5901"/>
				<path fill="none" stroke="#CB0300" stroke-width="7.1401" stroke-miterlimit="10" d="M671.4641,479.8178
					c61.0822,146.9712,122.4,294.7478,159.9753,361.9124"/>
				<path fill="none" stroke="#CB0300" stroke-width="7.1401" stroke-miterlimit="10" d="M335.7535,384.1781
					c-86.8411,71.1921-179.8808,140.0502-278.5468,206.79"/>
			</g>
			<g>
				<path fill="#FC2B31" d="M488.6283,407.2c0.6659-30.7016-6.6983-57.0004-22.5132-80.399
					c-20.065-29.6882-27.1267-55.6217-19.8842-73.0231c2.9553-7.1006,9.8429-16.2035,25.8708-19.2468
					c6.6796-1.2686,13.2065-1.912,19.3996-1.912c22.2279,0,40.9879,8.2586,54.2519,23.8824
					c9.8648,11.62,16.4935,27.1263,19.5082,45.4262c12.5406-13.8781,30.148-22.0528,48.7694-22.0528
					c20.2135,0,38.9644,9.582,51.4446,26.2899c12.7153,17.0221,15.6182,36.1945,8.173,53.985
					c-8.3565,19.9676-28.4304,34.4169-52.3878,37.7084c-22.0931,3.0358-40.2466,3.7782-56.2628,4.4328
					c-25.0588,1.0241-44.8517,1.8333-68.2686,10.6464l-8.2928,3.1211L488.6283,407.2z"/>
				<path fill="#BD0005" d="M491.5008,238.611c42.2036-0.0005,67.1372,31.4821,69.4547,79.6988
					c11.5665-21.2575,32.3084-32.4435,53.075-32.4435c17.2872,0,34.5901,7.7466,46.6445,23.8839
					c27.0916,36.2677,0.3896,76.5909-40.2301,82.1723c-56.0654,7.7036-86.0241,0.428-125.8264,15.4073
					c0.6921-31.9102-7.1853-59.6878-23.5389-83.8842c-28.4304-42.0651-29.9093-76.9425,2.1399-83.0283
					C479.6271,239.2006,485.7261,238.6111,491.5008,238.611 M491.5018,226.6275h-0.0011c-6.5671,0.0001-13.47,0.6786-20.5168,2.0167
					c-18.6506,3.5415-26.7632,14.3706-30.2847,22.8315c-8.0428,19.3242-0.7796,47.2666,20.4518,78.6802
					c15.0965,22.3365,22.1248,47.4953,21.4868,76.914l-0.3843,17.7173l16.5858-6.2419
					c22.5149-8.4734,41.8827-9.2651,66.4034-10.2676c16.1506-0.6603,34.4562-1.4087,56.8334-4.4833
					c26.0491-3.5792,47.9283-19.4168,57.0995-41.3321c3.9191-9.3651,5.2898-19.5761,3.9639-29.5291
					c-1.413-10.6063-5.741-20.819-12.8639-30.3545c-13.6225-18.2366-34.1231-28.6958-56.245-28.6958
					c-12.6298,0-25.1078,3.4294-36.085,9.9174c-3.1631,1.8696-6.1796,3.9839-9.0272,6.3198
					C558.7385,250.3326,530.6621,226.6275,491.5018,226.6275L491.5018,226.6275z"/>
			</g>
		</g>
		<g opacity="0.8">
			<polygon fill="#B09F50" points="225.4186,62.8053 335.7535,384.178 57.2067,590.9681 291.3276,370.0954 217.0613,81.8856 			"/>
			<path fill="#B09F50" d="M301.0339,412.2502l34.7197-28.0721l95.9518,214.4591c79.4998-23.3708,159.597-66.6144,239.9498-118.3594
				l115.5594,282.0558L664.5269,499.0604L416.8687,640.0086L301.0339,412.2502z"/>
			<polygon fill="#B09F50" points="671.6552,480.2777 964.947,280.519 740.4221,477.6612 802.9636,785.5427 			"/>
		</g>
	</g>
	<g>
		<path fill="#E7000D" d="M1871.119,785.4577l-75.3374-142.2888c17.1923-167.1748,110.2118-380.5037,202.1587-400.3029
			c74.2379-15.9858,117.7491,24.4149,101.463,115.5421c-4.8872,27.3471-41.7139,71.0056-83.1655,118.4598
			c77.4539-75.1131,135.7786-109.0129,167.1248-49.1064c37.9995,72.6224-36.0198,107.0828-132.0107,143.3949
			c84.844-2.4763,151.603,6.7385,158.6997,75.9582c5.9604,58.1334-74.6514,51.3641-160.9646,42.632
			c67.6741,49.7945,126.5549,98.912,90.2017,140.7007c-36.0488,24.7409-98.2421,4.5914-163.2819-20.1146
			C1940.7626,796.9448,1915.025,789.9745,1871.119,785.4577z"/>
		<g>
			<path d="M1780.7607,1363.1018l18.5459-0.2854c74.5168,94.8403,183.4232,167.7504,255.6089,158.6201
				c28.1426-3.5594,50.9717-17.6621,69.333-33.3824c5.2527-23.1556,14.7864-42.7444,28.2466-59.0614
				c-2.6782,20.3322-6.2263,39.2321-11.9832,54.4962c16.8584-3.3937,32.8501-3.8224,47.9338-1.1412
				c-12.2026,7.306-27.1885,12.4196-44.51,15.6926c19.8164,10.4813,37.0669,20.8406,46.2217,30.8146
				c-16.051-1.4667-35.5977-10.1866-56.208-21.1138c-26.0574,27.6661-64.0215,41.6346-110.4188,36.2357
				C1945.0674,1534.8466,1845.97,1448.951,1780.7607,1363.1018z"/>
			<path d="M1804.1191,1280.6261l18.5459-0.2854c74.5168,94.8403,172.3335,155.785,244.5193,146.6548
				c28.1423-3.5596,50.9717-17.6621,69.333-33.3826c5.2524-23.1555,14.7864-42.7444,28.2466-59.0613
				c-2.6782,20.3322-6.2263,39.2321-11.9834,54.4962c16.8586-3.3938,32.8503-3.8224,47.9341-1.1414
				c-12.2026,7.3062-27.1885,12.4197-44.51,15.6926c19.8167,10.4814,37.0669,20.8407,46.2217,30.8146
				c-16.051-1.4666-35.5974-10.1865-56.208-21.1136c-26.0576,27.6661-64.0215,41.6346-110.4189,36.2357
				C1957.3361,1440.4055,1869.3282,1366.4752,1804.1191,1280.6261z"/>
		</g>
		<path fill="#FE5C00" d="M1059.5753,428.231c-59.4704-14.5564-129.1122-16.7995-203.4632-13.342
			c-3.6051,0.1676-5.1288,4.6993-2.3242,6.9705c44.4651,36.0081,104.3054,68.4153,174.5447,98.3873L1059.5753,428.231z"/>
		<path fill="#87C6C8" d="M1038.0334,423.8085c164.7906-254.4953,396.0249-316.1351,585.4778-236.2453
			c175.3774,73.9543,325.2655,259.071,373.1993,341.2434c55.6761,95.4448,97.8649,201.7952,181.4637,232.8215
			c104.7366,38.8713,257.7629-0.0992,322.019-80.5724c3.533-4.4246,10.6846-1.9927,10.7991,3.6682
			c5.7993,287.1201-249.6938,671.8385-587.3239,687.4901c-406.2964,3.4238-782.9193-124.3997-919.8732-481.6209
			C952.2536,720.4274,965.4508,565.2457,1038.0334,423.8085z"/>
		<path fill="#FC4742" d="M1834.6483,849.7922l5.1359-160.9207c97.8282-136.6476,284.3911-275.7741,374.0552-247.3728
			c72.3943,22.9311,90.1453,79.5911,30.8147,150.6492c-17.8052,21.3245-71.4346,40.9755-130.9622,61.6292
			c104.5071-26.8197,171.9661-27.336,169.4802,40.2301c-3.0134,81.908-84.3794,75.1282-185.7437,59.0614
			c74.9058,39.9221,128.3093,81.0286,100.1477,144.6575c-23.6514,53.438-90.2974,7.5859-160.921-42.7981
			c34.0758,76.7994,60.851,148.6505,8.5597,166.9125c-43.573,3.609-87.5892-44.7291-131.818-98.4355
			C1889.4298,894.3021,1870.536,875.4866,1834.6483,849.7922z"/>
		
			<ellipse transform="matrix(0.4766 -0.8791 0.8791 0.4766 185.1342 1342.2125)" opacity="0.8" fill="#FEBDD1" enable-background="new    " cx="1219.7921" cy="515.6257" rx="47.7406" ry="77.1161"/>
		<path d="M1357.4639,480.3424c-3.744-2.2466-9.0844-2.8582-13.301-3.5589c-5.1385-0.8538-10.323-1.4145-15.514-1.8284
			c-1.0068-0.0803-2.014-0.1548-3.0215-0.2242c-0.5092-0.0371-1.0187-0.0685-1.5286-0.0942
			c-1.1102-0.0628-0.9438-0.4419-1.3496-1.3913c-0.9296-2.1744-1.8282-4.3893-2.9155-6.4905
			c-1.0228-1.9767-2.1931-3.8909-3.3053-5.8193c-0.4244-0.7358-0.8618-1.4498-1.3353-2.1546
			c-1.2761-1.8049-3.4064-3.8994-4.224-5.9393c-0.0708-0.1768-0.3993-0.3289-0.4202-0.5116
			c-0.0581-0.5086,0.9478-1.1097,1.438-1.5244c1.7959-1.5198,3.6046-3.0247,5.4274-4.5122
			c4.1014-3.3472,8.265-6.6345,12.5962-9.6813c3.3475-2.3549,6.9774-5.0357,11.0337-5.9558
			c-5.9404-0.3139-12.2775,2.5901-17.7028,4.6895c-6.5594,2.5384-13.004,5.3762-19.3846,8.3323
			c-1.0952,0.5073-2.5297-1.7311-3.3629-2.5615c-1.1948-1.1906-2.4106-2.3602-3.6492-3.5053
			c-2.6926-2.4899-5.493-4.8651-8.4138-7.0836c-1.3809-1.0489-14.5605-9.2798-14.5283-9.3648
			c4.2007-11.0906,8.4014-22.1811,12.6021-33.2718c0.0762-0.2011,0.1523-0.4023,0.2286-0.6035
			c-6.9149,9.3735-13.8297,18.7469-20.7446,28.1204c-0.4143,0.5617-0.8286,1.1233-1.243,1.685
			c-0.4403,0.597-5.41-1.5201-6.3392-1.7809c-7.2437-2.0332-14.7035-3.0508-22.2266-2.969
			c-1.7026,0.0185-3.405,0.0752-5.1038,0.1922c-0.1663-1.5309-0.3174-3.0635-0.4521-4.5975
			c-0.3351-3.8132-0.5773-7.6375-0.6469-11.4652c-0.0925-5.0886-0.7234-12.9791,2.8306-17.1741
			c-2.834,1.8629-4.2892,5.5981-5.4561,8.6364c-1.7721,4.6143-3.027,9.4299-4.134,14.2408
			c-0.5289,2.2989-1.0146,4.6077-1.4657,6.9232c-0.1991,1.0217-0.3914,2.0446-0.577,3.0689
			c-0.3142,1.7341-0.2683,1.7462-2.0685,2.1518c-4.7039,1.0596-9.3103,2.5353-13.7753,4.3527
			c-14.601,5.9428-27.1254,15.3974-38.0044,26.678c23.8206-13.0506,49.9542-23.8087,77.5896-17.8125
			c14.1244,3.0646,26.9376,10.6034,37.67,20.1301c7.671,6.8092,15.1401,14.7061,20.4895,23.5237
			c9.4442,15.5674,13.619,33.9916,12.1234,52.1793c-0.8611,10.4719-3.1733,20.4419-6.3223,30.4426
			c-2.7091,8.6039-6.9592,16.623-11.0162,24.639c9.1443-9.3816,17.1639-19.7831,22.3562-31.9137
			c1.3585-3.1744,2.6128-6.3222,3.7239-9.5922c3.116-0.6712,6.2751-1.1639,9.4368-1.5615
			c6.5054-0.8178,13.0714-1.1945,19.5499-0.0161c-7.7776-5.0102-16.9979-7.572-25.9662-9.5213
			c2.8127-12.6049,2.7904-26.2204-0.0669-38.7995c-0.1295-0.5652-0.2556-1.1311-0.3784-1.6978
			c-0.2216-1.1682,0.2695-0.8554,1.303-1.0881c1.6407-0.3695,3.2849-0.7239,4.933-1.0592c3.3203-0.6755,6.6569-1.268,10.0115-1.7464
			c5.358-0.764,10.8037-1.3136,16.1558-0.2984C1358.5007,480.8862,1357.9822,480.6143,1357.4639,480.3424
			C1356.9668,480.0442,1358.4536,480.8615,1357.4639,480.3424z"/>
	</g>
</g>
</svg>
